<mxfile host="app.diagrams.net" modified="2023-09-22T09:27:54.960Z" agent="Mozilla/5.0 (X11; Linux x86_64) AppleWebKit/537.36 (KHTML, like Gecko) Chrome/116.0.0.0 Safari/537.36" etag="wxgDFG_BcwXqzA-tW-8l" version="21.8.0" type="github">
  <diagram id="prtHgNgQTEPvFCAcTncT" name="Page-1">
    <mxGraphModel dx="1195" dy="619" grid="0" gridSize="10" guides="1" tooltips="1" connect="1" arrows="1" fold="1" page="1" pageScale="1" pageWidth="827" pageHeight="1169" math="0" shadow="0">
      <root>
        <mxCell id="0" />
        <mxCell id="1" parent="0" />
        <mxCell id="GrY59dSLu-K7J9brHulv-20" style="edgeStyle=orthogonalEdgeStyle;curved=1;rounded=0;orthogonalLoop=1;jettySize=auto;html=1;" edge="1" parent="1" source="GrY59dSLu-K7J9brHulv-2" target="GrY59dSLu-K7J9brHulv-8">
          <mxGeometry relative="1" as="geometry">
            <Array as="points">
              <mxPoint x="431" y="233" />
              <mxPoint x="734" y="233" />
            </Array>
          </mxGeometry>
        </mxCell>
        <mxCell id="GrY59dSLu-K7J9brHulv-21" style="edgeStyle=orthogonalEdgeStyle;curved=1;rounded=0;orthogonalLoop=1;jettySize=auto;html=1;" edge="1" parent="1" source="GrY59dSLu-K7J9brHulv-2" target="GrY59dSLu-K7J9brHulv-6">
          <mxGeometry relative="1" as="geometry" />
        </mxCell>
        <mxCell id="GrY59dSLu-K7J9brHulv-22" style="edgeStyle=orthogonalEdgeStyle;curved=1;rounded=0;orthogonalLoop=1;jettySize=auto;html=1;" edge="1" parent="1" source="GrY59dSLu-K7J9brHulv-2" target="GrY59dSLu-K7J9brHulv-5">
          <mxGeometry relative="1" as="geometry" />
        </mxCell>
        <mxCell id="GrY59dSLu-K7J9brHulv-2" value="spc Module" style="rounded=1;whiteSpace=wrap;html=1;fontSize=24;" vertex="1" parent="1">
          <mxGeometry x="371" y="142" width="120" height="60" as="geometry" />
        </mxCell>
        <mxCell id="GrY59dSLu-K7J9brHulv-5" value="database" style="rounded=1;whiteSpace=wrap;html=1;fontSize=24;" vertex="1" parent="1">
          <mxGeometry x="485" y="281" width="120" height="60" as="geometry" />
        </mxCell>
        <mxCell id="GrY59dSLu-K7J9brHulv-6" value="CPK" style="rounded=1;whiteSpace=wrap;html=1;fontSize=24;" vertex="1" parent="1">
          <mxGeometry x="282" y="284" width="120" height="60" as="geometry" />
        </mxCell>
        <mxCell id="GrY59dSLu-K7J9brHulv-7" value="UI" style="rounded=1;whiteSpace=wrap;html=1;fontSize=24;" vertex="1" parent="1">
          <mxGeometry x="73" y="284" width="120" height="60" as="geometry" />
        </mxCell>
        <mxCell id="GrY59dSLu-K7J9brHulv-8" value="Export" style="rounded=1;whiteSpace=wrap;html=1;fontSize=24;" vertex="1" parent="1">
          <mxGeometry x="674" y="281" width="120" height="60" as="geometry" />
        </mxCell>
        <mxCell id="GrY59dSLu-K7J9brHulv-19" style="edgeStyle=orthogonalEdgeStyle;curved=1;rounded=0;orthogonalLoop=1;jettySize=auto;html=1;entryX=0.413;entryY=0.047;entryDx=0;entryDy=0;entryPerimeter=0;" edge="1" parent="1" source="GrY59dSLu-K7J9brHulv-2" target="GrY59dSLu-K7J9brHulv-7">
          <mxGeometry relative="1" as="geometry">
            <Array as="points">
              <mxPoint x="431" y="232" />
              <mxPoint x="123" y="232" />
            </Array>
          </mxGeometry>
        </mxCell>
      </root>
    </mxGraphModel>
  </diagram>
</mxfile>
